<mxfile host="app.diagrams.net" modified="2023-08-11T18:03:21.996Z" agent="Mozilla/5.0 (Windows NT 10.0; Win64; x64) AppleWebKit/537.36 (KHTML, like Gecko) Chrome/114.0.0.0 Safari/537.36 OPR/100.0.0.0" etag="5foi-GWzOvqQrFmbEnc0" version="21.6.8" type="github">
  <diagram id="C5RBs43oDa-KdzZeNtuy" name="Page-1">
    <mxGraphModel dx="1398" dy="808" grid="1" gridSize="10" guides="1" tooltips="1" connect="1" arrows="1" fold="1" page="1" pageScale="1" pageWidth="827" pageHeight="1169" math="0" shadow="0">
      <root>
        <mxCell id="WIyWlLk6GJQsqaUBKTNV-0" />
        <mxCell id="WIyWlLk6GJQsqaUBKTNV-1" parent="WIyWlLk6GJQsqaUBKTNV-0" />
        <mxCell id="6Gp2wZPkci7zswTzgtCB-16" value="" style="edgeStyle=orthogonalEdgeStyle;rounded=0;orthogonalLoop=1;jettySize=auto;html=1;" edge="1" parent="WIyWlLk6GJQsqaUBKTNV-1" source="WIyWlLk6GJQsqaUBKTNV-6" target="6Gp2wZPkci7zswTzgtCB-4">
          <mxGeometry relative="1" as="geometry" />
        </mxCell>
        <mxCell id="6Gp2wZPkci7zswTzgtCB-17" value="Sim" style="edgeLabel;html=1;align=center;verticalAlign=middle;resizable=0;points=[];" vertex="1" connectable="0" parent="6Gp2wZPkci7zswTzgtCB-16">
          <mxGeometry x="-0.4238" y="1" relative="1" as="geometry">
            <mxPoint as="offset" />
          </mxGeometry>
        </mxCell>
        <mxCell id="6Gp2wZPkci7zswTzgtCB-28" value="" style="edgeStyle=orthogonalEdgeStyle;rounded=0;orthogonalLoop=1;jettySize=auto;html=1;" edge="1" parent="WIyWlLk6GJQsqaUBKTNV-1" source="WIyWlLk6GJQsqaUBKTNV-6" target="6Gp2wZPkci7zswTzgtCB-27">
          <mxGeometry relative="1" as="geometry" />
        </mxCell>
        <mxCell id="6Gp2wZPkci7zswTzgtCB-29" value="Não" style="edgeLabel;html=1;align=center;verticalAlign=middle;resizable=0;points=[];" vertex="1" connectable="0" parent="6Gp2wZPkci7zswTzgtCB-28">
          <mxGeometry x="-0.1057" relative="1" as="geometry">
            <mxPoint as="offset" />
          </mxGeometry>
        </mxCell>
        <mxCell id="WIyWlLk6GJQsqaUBKTNV-6" value="tipo=1" style="rhombus;whiteSpace=wrap;html=1;shadow=0;fontFamily=Helvetica;fontSize=12;align=center;strokeWidth=1;spacing=6;spacingTop=-4;" parent="WIyWlLk6GJQsqaUBKTNV-1" vertex="1">
          <mxGeometry x="760" y="290" width="120" height="95" as="geometry" />
        </mxCell>
        <mxCell id="6Gp2wZPkci7zswTzgtCB-12" value="" style="edgeStyle=orthogonalEdgeStyle;rounded=0;orthogonalLoop=1;jettySize=auto;html=1;" edge="1" parent="WIyWlLk6GJQsqaUBKTNV-1" source="6Gp2wZPkci7zswTzgtCB-0" target="6Gp2wZPkci7zswTzgtCB-1">
          <mxGeometry relative="1" as="geometry" />
        </mxCell>
        <mxCell id="6Gp2wZPkci7zswTzgtCB-0" value="Inicio" style="ellipse;whiteSpace=wrap;html=1;" vertex="1" parent="WIyWlLk6GJQsqaUBKTNV-1">
          <mxGeometry x="775" y="100" width="90" height="60" as="geometry" />
        </mxCell>
        <mxCell id="6Gp2wZPkci7zswTzgtCB-13" value="" style="edgeStyle=orthogonalEdgeStyle;rounded=0;orthogonalLoop=1;jettySize=auto;html=1;" edge="1" parent="WIyWlLk6GJQsqaUBKTNV-1" source="6Gp2wZPkci7zswTzgtCB-1" target="WIyWlLk6GJQsqaUBKTNV-6">
          <mxGeometry relative="1" as="geometry" />
        </mxCell>
        <mxCell id="6Gp2wZPkci7zswTzgtCB-1" value="tipo, n1, n2, n3" style="shape=parallelogram;perimeter=parallelogramPerimeter;whiteSpace=wrap;html=1;fixedSize=1;" vertex="1" parent="WIyWlLk6GJQsqaUBKTNV-1">
          <mxGeometry x="765" y="200" width="110" height="50" as="geometry" />
        </mxCell>
        <mxCell id="6Gp2wZPkci7zswTzgtCB-18" value="" style="edgeStyle=orthogonalEdgeStyle;rounded=0;orthogonalLoop=1;jettySize=auto;html=1;" edge="1" parent="WIyWlLk6GJQsqaUBKTNV-1" source="6Gp2wZPkci7zswTzgtCB-4" target="6Gp2wZPkci7zswTzgtCB-5">
          <mxGeometry relative="1" as="geometry" />
        </mxCell>
        <mxCell id="6Gp2wZPkci7zswTzgtCB-4" value="m = (n1 + n2 +n3)/3" style="rounded=0;whiteSpace=wrap;html=1;" vertex="1" parent="WIyWlLk6GJQsqaUBKTNV-1">
          <mxGeometry x="950" y="307.5" width="120" height="60" as="geometry" />
        </mxCell>
        <mxCell id="6Gp2wZPkci7zswTzgtCB-19" value="" style="edgeStyle=orthogonalEdgeStyle;rounded=0;orthogonalLoop=1;jettySize=auto;html=1;" edge="1" parent="WIyWlLk6GJQsqaUBKTNV-1" source="6Gp2wZPkci7zswTzgtCB-5" target="6Gp2wZPkci7zswTzgtCB-6">
          <mxGeometry relative="1" as="geometry" />
        </mxCell>
        <mxCell id="6Gp2wZPkci7zswTzgtCB-21" value="Sim" style="edgeLabel;html=1;align=center;verticalAlign=middle;resizable=0;points=[];" vertex="1" connectable="0" parent="6Gp2wZPkci7zswTzgtCB-19">
          <mxGeometry x="-0.44" y="2" relative="1" as="geometry">
            <mxPoint as="offset" />
          </mxGeometry>
        </mxCell>
        <mxCell id="6Gp2wZPkci7zswTzgtCB-22" value="" style="edgeStyle=orthogonalEdgeStyle;rounded=0;orthogonalLoop=1;jettySize=auto;html=1;" edge="1" parent="WIyWlLk6GJQsqaUBKTNV-1" source="6Gp2wZPkci7zswTzgtCB-5" target="6Gp2wZPkci7zswTzgtCB-7">
          <mxGeometry relative="1" as="geometry" />
        </mxCell>
        <mxCell id="6Gp2wZPkci7zswTzgtCB-5" value="m&amp;lt;6" style="rhombus;whiteSpace=wrap;html=1;" vertex="1" parent="WIyWlLk6GJQsqaUBKTNV-1">
          <mxGeometry x="970" y="410" width="80" height="80" as="geometry" />
        </mxCell>
        <mxCell id="6Gp2wZPkci7zswTzgtCB-23" value="" style="edgeStyle=orthogonalEdgeStyle;rounded=0;orthogonalLoop=1;jettySize=auto;html=1;" edge="1" parent="WIyWlLk6GJQsqaUBKTNV-1" source="6Gp2wZPkci7zswTzgtCB-6" target="6Gp2wZPkci7zswTzgtCB-10">
          <mxGeometry relative="1" as="geometry" />
        </mxCell>
        <mxCell id="6Gp2wZPkci7zswTzgtCB-6" value="&quot;Reprovado&quot;" style="shape=document;whiteSpace=wrap;html=1;boundedLbl=1;" vertex="1" parent="WIyWlLk6GJQsqaUBKTNV-1">
          <mxGeometry x="1100" y="410" width="120" height="80" as="geometry" />
        </mxCell>
        <mxCell id="6Gp2wZPkci7zswTzgtCB-24" value="" style="edgeStyle=orthogonalEdgeStyle;rounded=0;orthogonalLoop=1;jettySize=auto;html=1;" edge="1" parent="WIyWlLk6GJQsqaUBKTNV-1" source="6Gp2wZPkci7zswTzgtCB-7" target="6Gp2wZPkci7zswTzgtCB-11">
          <mxGeometry relative="1" as="geometry" />
        </mxCell>
        <mxCell id="6Gp2wZPkci7zswTzgtCB-7" value="&quot;Aprovado&quot;" style="shape=document;whiteSpace=wrap;html=1;boundedLbl=1;" vertex="1" parent="WIyWlLk6GJQsqaUBKTNV-1">
          <mxGeometry x="950" y="535" width="120" height="80" as="geometry" />
        </mxCell>
        <mxCell id="6Gp2wZPkci7zswTzgtCB-10" value="Fim" style="ellipse;whiteSpace=wrap;html=1;" vertex="1" parent="WIyWlLk6GJQsqaUBKTNV-1">
          <mxGeometry x="1280" y="420" width="90" height="60" as="geometry" />
        </mxCell>
        <mxCell id="6Gp2wZPkci7zswTzgtCB-11" value="Fim" style="ellipse;whiteSpace=wrap;html=1;" vertex="1" parent="WIyWlLk6GJQsqaUBKTNV-1">
          <mxGeometry x="965" y="650" width="90" height="60" as="geometry" />
        </mxCell>
        <mxCell id="6Gp2wZPkci7zswTzgtCB-35" value="" style="edgeStyle=orthogonalEdgeStyle;rounded=0;orthogonalLoop=1;jettySize=auto;html=1;" edge="1" parent="WIyWlLk6GJQsqaUBKTNV-1" source="6Gp2wZPkci7zswTzgtCB-27" target="6Gp2wZPkci7zswTzgtCB-30">
          <mxGeometry relative="1" as="geometry" />
        </mxCell>
        <mxCell id="6Gp2wZPkci7zswTzgtCB-27" value="mp=((n1*3,3)+(n2*3,3)+(n3*3,3))/3,3+3,3+3,3" style="rounded=0;whiteSpace=wrap;html=1;" vertex="1" parent="WIyWlLk6GJQsqaUBKTNV-1">
          <mxGeometry x="480" y="292.5" width="170" height="90" as="geometry" />
        </mxCell>
        <mxCell id="6Gp2wZPkci7zswTzgtCB-36" value="" style="edgeStyle=orthogonalEdgeStyle;rounded=0;orthogonalLoop=1;jettySize=auto;html=1;" edge="1" parent="WIyWlLk6GJQsqaUBKTNV-1" source="6Gp2wZPkci7zswTzgtCB-30" target="6Gp2wZPkci7zswTzgtCB-31">
          <mxGeometry relative="1" as="geometry" />
        </mxCell>
        <mxCell id="6Gp2wZPkci7zswTzgtCB-38" value="Não" style="edgeLabel;html=1;align=center;verticalAlign=middle;resizable=0;points=[];" vertex="1" connectable="0" parent="6Gp2wZPkci7zswTzgtCB-36">
          <mxGeometry x="-0.6222" y="-2" relative="1" as="geometry">
            <mxPoint as="offset" />
          </mxGeometry>
        </mxCell>
        <mxCell id="6Gp2wZPkci7zswTzgtCB-39" value="" style="edgeStyle=orthogonalEdgeStyle;rounded=0;orthogonalLoop=1;jettySize=auto;html=1;" edge="1" parent="WIyWlLk6GJQsqaUBKTNV-1" source="6Gp2wZPkci7zswTzgtCB-30" target="6Gp2wZPkci7zswTzgtCB-33">
          <mxGeometry relative="1" as="geometry" />
        </mxCell>
        <mxCell id="6Gp2wZPkci7zswTzgtCB-40" value="Sim" style="edgeLabel;html=1;align=center;verticalAlign=middle;resizable=0;points=[];" vertex="1" connectable="0" parent="6Gp2wZPkci7zswTzgtCB-39">
          <mxGeometry x="-0.0491" y="-2" relative="1" as="geometry">
            <mxPoint as="offset" />
          </mxGeometry>
        </mxCell>
        <mxCell id="6Gp2wZPkci7zswTzgtCB-30" value="mp&amp;lt;6" style="rhombus;whiteSpace=wrap;html=1;" vertex="1" parent="WIyWlLk6GJQsqaUBKTNV-1">
          <mxGeometry x="525" y="420" width="80" height="80" as="geometry" />
        </mxCell>
        <mxCell id="6Gp2wZPkci7zswTzgtCB-37" value="" style="edgeStyle=orthogonalEdgeStyle;rounded=0;orthogonalLoop=1;jettySize=auto;html=1;" edge="1" parent="WIyWlLk6GJQsqaUBKTNV-1" source="6Gp2wZPkci7zswTzgtCB-31" target="6Gp2wZPkci7zswTzgtCB-32">
          <mxGeometry relative="1" as="geometry" />
        </mxCell>
        <mxCell id="6Gp2wZPkci7zswTzgtCB-31" value="&quot;Aprovado&quot;" style="shape=document;whiteSpace=wrap;html=1;boundedLbl=1;" vertex="1" parent="WIyWlLk6GJQsqaUBKTNV-1">
          <mxGeometry x="505" y="580" width="120" height="80" as="geometry" />
        </mxCell>
        <mxCell id="6Gp2wZPkci7zswTzgtCB-32" value="Fim" style="ellipse;whiteSpace=wrap;html=1;" vertex="1" parent="WIyWlLk6GJQsqaUBKTNV-1">
          <mxGeometry x="520" y="695" width="90" height="60" as="geometry" />
        </mxCell>
        <mxCell id="6Gp2wZPkci7zswTzgtCB-41" value="" style="edgeStyle=orthogonalEdgeStyle;rounded=0;orthogonalLoop=1;jettySize=auto;html=1;" edge="1" parent="WIyWlLk6GJQsqaUBKTNV-1" source="6Gp2wZPkci7zswTzgtCB-33" target="6Gp2wZPkci7zswTzgtCB-34">
          <mxGeometry relative="1" as="geometry" />
        </mxCell>
        <mxCell id="6Gp2wZPkci7zswTzgtCB-33" value="&quot;Reprovado&quot;" style="shape=document;whiteSpace=wrap;html=1;boundedLbl=1;" vertex="1" parent="WIyWlLk6GJQsqaUBKTNV-1">
          <mxGeometry x="310" y="420" width="120" height="80" as="geometry" />
        </mxCell>
        <mxCell id="6Gp2wZPkci7zswTzgtCB-34" value="Fim" style="ellipse;whiteSpace=wrap;html=1;" vertex="1" parent="WIyWlLk6GJQsqaUBKTNV-1">
          <mxGeometry x="130" y="430" width="90" height="60" as="geometry" />
        </mxCell>
      </root>
    </mxGraphModel>
  </diagram>
</mxfile>
